<?xml version="1.0" standalone="no"?>
<!DOCTYPE svg PUBLIC "-//W3C//DTD SVG 20010904//EN"
 "http://www.w3.org/TR/2001/REC-SVG-20010904/DTD/svg10.dtd">
<svg version="1.0" xmlns="http://www.w3.org/2000/svg"
 width="612.000000pt" height="223.000000pt" viewBox="0 0 612.000000 223.000000"
 preserveAspectRatio="xMidYMid meet">

<g transform="translate(0.000000,223.000000) scale(0.100000,-0.100000)"
fill="#528ec7" stroke="none">
<path d="M2585 2220 l-1330 -5 -175 -71 c-96 -40 -245 -101 -330 -137 -263
-110 -355 -132 -594 -143 l-146 -7 0 -164 0 -164 38 8 c62 13 358 6 497 -11
207 -27 422 -31 533 -12 113 20 171 43 581 235 175 82 357 163 406 180 185 66
330 74 652 40 109 -12 259 -22 333 -22 151 0 205 10 384 72 119 41 465 186
481 202 5 5 7 8 5 7 -3 -2 -603 -5 -1335 -8z"/>
<path d="M2491 1772 c-17 -70 -40 -169 -50 -220 -10 -51 -20 -94 -22 -96 -19
-17 -434 -216 -502 -241 l-88 -31 203 -104 c112 -57 222 -113 246 -125 41 -19
43 -22 39 -55 -3 -19 -25 -87 -50 -150 l-46 -115 92 -8 c122 -10 299 0 421 23
l99 19 254 -130 c140 -72 256 -129 257 -128 2 2 23 123 47 268 l44 263 77 39
c162 82 370 150 491 161 21 2 -30 32 -220 127 -137 68 -250 125 -252 127 -5 5
30 106 55 156 13 26 24 51 24 56 0 9 -220 28 -455 38 l-140 7 -246 123 -247
123 -31 -127z m261 -93 l102 -51 -115 -39 c-63 -22 -121 -42 -130 -45 -13 -5
-13 6 5 90 12 53 24 96 29 96 4 0 53 -23 109 -51z m668 -109 c0 -9 -30 -90
-36 -98 -1 -2 -51 21 -111 52 l-108 56 128 0 c76 0 127 -4 127 -10z m-237
-106 c94 -47 173 -87 174 -88 5 -5 -66 -349 -73 -356 -13 -13 -332 -176 -383
-196 l-44 -17 -179 89 c-178 88 -179 89 -175 119 2 17 17 106 33 199 l29 168
55 28 c120 61 325 138 368 139 12 1 100 -38 195 -85z m437 -219 c58 -30 103
-54 100 -55 -7 0 -222 -76 -241 -84 -15 -6 -16 -2 -8 41 20 110 31 153 37 152
4 0 54 -24 112 -54z m-1231 28 c-1 -31 -34 -191 -41 -198 -3 -3 -52 17 -108
45 l-103 51 119 59 c66 32 122 59 127 59 4 1 7 -7 6 -16z m192 -474 c56 -27
99 -52 96 -55 -6 -7 -203 -44 -232 -44 l-24 0 21 63 c11 34 22 68 24 75 2 6 6
12 9 12 3 0 51 -23 106 -51z m679 39 c0 -13 -25 -153 -35 -196 -5 -22 -7 -21
-110 30 -58 29 -104 55 -104 58 0 5 229 118 242 119 4 1 7 -5 7 -11z"/>
<path d="M6006 868 c-100 -44 -226 -83 -325 -99 -92 -16 -334 -13 -536 5 -491
45 -646 11 -1204 -269 -304 -153 -427 -198 -622 -231 -117 -19 -301 -16 -554
11 -165 17 -325 19 -415 4 -100 -16 -244 -68 -487 -175 l-223 -99 1451 -3
1450 -2 292 148 c503 256 647 282 1215 226 l62 -7 0 267 c0 146 -3 266 -7 265
-5 -1 -48 -19 -97 -41z"/>
</g>
</svg>
